<?xml version="1.0" encoding="UTF-8" standalone="no"?>
<svg width="20px" height="20px" viewBox="0 0 20 20" version="1.1" xmlns="http://www.w3.org/2000/svg" xmlns:xlink="http://www.w3.org/1999/xlink">
    <!-- Generator: UU 43.2 (39069) - http://www.bohemiancoding.com/UU -->
    <title>Delete Photo Icon</title>
    <desc>Created with UU.</desc>
    <defs></defs>
    <g id="Assets" stroke="none" stroke-width="1" fill="none" fill-rule="evenodd">
        <g id="Delete-Photo-Icon">
            <g id="zsg-icon-circle-X-Copy">
                <g id="Layer_1">
                    <path d="M10,0 C4.49122807,0 0,4.49122807 0,10 C0,15.5087719 4.49122807,20 10,20 C15.5087719,20 20,15.5087719 20,10 C20,4.49122807 15.5087719,0 10,0 L10,0 L10,0 L10,0 Z" id="Path" fill-opacity="0.499235734" fill="#000000"></path>
                    <path d="M14.1595218,13.2276687 C14.4300598,13.4982067 14.4300598,13.9190436 14.1595218,14.1895816 C14.0092229,14.3398804 13.8288642,14.4 13.6785653,14.4 C13.4681469,14.4 13.3479078,14.3398804 13.1976089,14.1895816 L9.98121264,10.9431255 L6.7648164,14.1595218 C6.61451751,14.3098207 6.43415884,14.3699402 6.28385995,14.3699402 C6.0734415,14.3699402 5.95320239,14.3098207 5.8029035,14.1595218 C5.5323655,13.8889838 5.5323655,13.4681469 5.8029035,13.1976089 L9.01929974,9.98121264 L5.8029035,6.7648164 C5.5323655,6.49427839 5.5323655,6.01332195 5.8029035,5.8029035 C6.0734415,5.5323655 6.49427839,5.5323655 6.7648164,5.8029035 L9.98121264,9.01929974 L13.1976089,5.8029035 C13.4681469,5.5323655 13.8889838,5.5323655 14.1595218,5.8029035 C14.4300598,6.0734415 14.4300598,6.49427839 14.1595218,6.7648164 L10.9431255,9.98121264 L14.1595218,13.2276687 L14.1595218,13.2276687 L14.1595218,13.2276687 L14.1595218,13.2276687 Z" id="Shape" fill="#FFFFFF"></path>
                </g>
            </g>
        </g>
    </g>
</svg>